<?xml version="1.0" encoding="iso-8859-1"?>
<!-- Generator: Adobe Illustrator 16.0.0, SVG Export Plug-In . SVG Version: 6.00 Build 0)  -->
<!DOCTYPE svg PUBLIC "-//W3C//DTD SVG 1.1//EN" "http://www.w3.org/Graphics/SVG/1.1/DTD/svg11.dtd">
<svg version="1.1" id="Capa_1" xmlns="http://www.w3.org/2000/svg" xmlns:xlink="http://www.w3.org/1999/xlink" x="0px" y="0px"
	 width="287.862px" height="287.862px" viewBox="0 0 287.862 287.862" style="enable-background:new 0 0 287.862 287.862;"
	 xml:space="preserve">
<g>
	<path d="M276.012,5.128c-2.448-6.732-12.853-6.732-14.688-0.612l0,0C247.86-0.379,220.32,32.057,211.751,39.4
		c-15.3,12.852-30.6,25.092-47.124,36.108c-15.911,10.404-22.032,12.24-37.332,0.612c-26.928-21.42-50.796-47.124-80.784-64.26
		c-6.732-3.672-40.392-13.464-33.66,5.508c0,0,0,0,0,0.612c-2.448,1.224-3.672,3.672-2.448,7.344
		c42.228,85.068,80.172,174.419,127.296,258.263c2.448,4.284,9.792,6.12,12.853,1.836c39.168-49.571,54.468-110.771,82.619-166.463
		C247.86,90.197,287.028,39.4,276.012,5.128z M125.459,115.289c-0.612,0.612-0.612,0.612-1.224,1.224l0,0
		c-0.612-0.612-1.224-1.224-1.836-1.836c-1.224-1.836-1.836-3.06-3.06-4.896c1.836,1.224,3.06,2.448,4.896,3.672
		C124.847,114.064,125.459,114.677,125.459,115.289z"/>
</g>
<g>
</g>
<g>
</g>
<g>
</g>
<g>
</g>
<g>
</g>
<g>
</g>
<g>
</g>
<g>
</g>
<g>
</g>
<g>
</g>
<g>
</g>
<g>
</g>
<g>
</g>
<g>
</g>
<g>
</g>
</svg>
