<?xml version="1.0" encoding="iso-8859-1"?>
<!-- Generator: Adobe Illustrator 19.0.0, SVG Export Plug-In . SVG Version: 6.00 Build 0)  -->
<svg version="1.1" id="Layer_1" xmlns="http://www.w3.org/2000/svg" xmlns:xlink="http://www.w3.org/1999/xlink" x="0px" y="0px"
	 viewBox="0 0 512 512" style="enable-background:new 0 0 512 512;" xml:space="preserve">
<g>
	<g>
		<rect x="347.105" y="450.497" width="20.898" height="20.898"/>
	</g>
</g>
<g>
	<g>
		<path d="M180.078,132.434c-68.989,31.044-84.988,97.296-85.636,100.102l30.544,7.049c0.123-0.536,12.992-53.832,67.955-78.566
			L180.078,132.434z"/>
	</g>
</g>
<g>
	<g>
		<path d="M486.12,263.617c-4.306-55.231-28.042-106.556-67.802-145.881c-38.34-37.92-87.683-60.811-140.745-65.705
			c5.509-5.516,8.915-13.131,8.915-21.543C286.488,13.651,272.839,0,256,0s-30.488,13.651-30.488,30.488
			c0,8.411,3.406,16.027,8.915,21.543c-53.062,4.894-102.403,27.785-140.744,65.705c-39.761,39.325-63.497,90.65-67.803,145.881H0
			v31.347h24.985h27.26v21.937l71.468,35.616L300.457,379.9l0.61,0.083c0.059,0.006,6.154,0.868,11.959,4.104
			c8.651,4.822,9.76,11.046,9.76,15.928v7.078h-18.62V512h177.445V407.094h-23.941v-81.984l-30.617-30.146h59.96H512v-31.347H486.12
			z M304.984,348.88l-171.652-26.594l-49.74-24.787v-2.535h298.784l43.948,43.272v68.857h-72.19v-7.078
			C354.135,364.268,322.183,350.98,304.984,348.88z M450.265,439.016v41.637H335.515v-41.637H450.265z M395.219,263.617H57.338
			C66.645,162.326,152.635,82.377,256,82.377s189.355,79.949,198.662,181.241H395.219z"/>
	</g>
</g>
<g>
</g>
<g>
</g>
<g>
</g>
<g>
</g>
<g>
</g>
<g>
</g>
<g>
</g>
<g>
</g>
<g>
</g>
<g>
</g>
<g>
</g>
<g>
</g>
<g>
</g>
<g>
</g>
<g>
</g>
</svg>
